<svg width="364" height="376" viewBox="0 0 364 376" fill="none" xmlns="http://www.w3.org/2000/svg">
<rect width="364" height="376" rx="8" fill="url(#paint0_linear)"/>
<path d="M78.272 203L73.6 195.672C76.192 194.328 77.6 191.832 77.6 188.44C77.6 183.448 74.208 180.568 68.256 180.568H58.176V203H64.032V196.792H68.256H68.384L71.648 203H78.272ZM64.032 185.24H68.288C70.656 185.24 72.032 186.424 72.032 188.632C72.032 190.904 70.656 192.12 68.288 192.12H64.032V185.24ZM81.3323 180.568V203H99.3483V198.328H87.1883V194.104L97.8763 194.072V189.432H87.1883V185.24H99.0283V180.568H81.3323ZM124.494 203L115.662 189.848L123.982 180.568H117.198L108.782 189.976V180.568H102.926V203H108.782V197.528L111.662 194.328L117.486 203H124.494ZM126.895 180.568V203H142.255V198.008H132.751V180.568H126.895ZM161.5 203H167.74L158.332 180.568H152.316L142.684 203H148.7L150.268 199.032H159.964L161.5 203ZM152.028 194.552L155.164 186.552L158.236 194.552H152.028ZM169.77 180.568V203H174.986V188.792L180.202 200.76H184.042L189.258 188.792L189.29 203H194.474V180.568H188.074L182.122 193.656L176.17 180.568H169.77ZM215.274 173.176C213.802 173.176 212.746 174.232 212.746 175.736C212.746 177.176 213.802 178.264 215.274 178.264C216.714 178.264 217.77 177.176 217.77 175.736C217.77 174.232 216.714 173.176 215.274 173.176ZM221.482 173.176C220.01 173.176 218.986 174.232 218.986 175.736C218.986 177.176 220.01 178.264 221.482 178.264C222.954 178.264 223.978 177.176 223.978 175.736C223.978 174.232 222.954 173.176 221.482 173.176ZM213.898 193.592V180.568H208.042V193.592C208.042 199.512 212.106 203.256 218.442 203.256C224.746 203.256 228.714 199.512 228.714 193.592V180.568H222.858V193.592C222.858 196.504 221.066 198.264 218.474 198.264C215.818 198.264 213.898 196.472 213.898 193.592ZM252.324 199.096L248.9 195.416C247.332 197.016 245.188 198.04 243.332 198.04C239.876 198.04 237.252 195.288 237.252 191.672C237.252 188.088 239.876 185.368 243.332 185.368C245.284 185.368 247.428 186.52 248.9 188.312L252.292 184.248C250.052 181.88 246.564 180.408 243.236 180.408C236.388 180.408 231.236 185.272 231.236 191.736C231.236 197.816 235.492 202.456 241.412 203.16L240.228 205.688C240.612 205.592 241.06 205.528 241.38 205.528C242.308 205.528 242.82 206.04 242.82 206.68C242.82 207.32 242.308 207.832 241.508 207.832C240.964 207.832 240.388 207.576 239.972 207.192L238.916 209.592C239.812 210.2 240.964 210.584 241.988 210.584C244.356 210.584 246.02 209.272 246.02 207.224C246.02 205.944 245.156 204.984 243.844 204.632L244.612 203.128C247.46 202.712 250.308 201.208 252.324 199.096ZM261.68 173.176C260.208 173.176 259.152 174.232 259.152 175.736C259.152 177.176 260.208 178.264 261.68 178.264C263.12 178.264 264.176 177.176 264.176 175.736C264.176 174.232 263.12 173.176 261.68 173.176ZM267.888 173.176C266.416 173.176 265.392 174.232 265.392 175.736C265.392 177.176 266.416 178.264 267.888 178.264C269.36 178.264 270.384 177.176 270.384 175.736C270.384 174.232 269.36 173.176 267.888 173.176ZM260.304 193.592V180.568H254.448V193.592C254.448 199.512 258.512 203.256 264.848 203.256C271.152 203.256 275.12 199.512 275.12 193.592V180.568H269.264V193.592C269.264 196.504 267.472 198.264 264.88 198.264C262.224 198.264 260.304 196.472 260.304 193.592ZM279.082 180.568V203H284.554V189.56L294.73 203H299.85V180.568H294.41V194.072L284.234 180.568H279.082Z" fill="white"/>
<defs>
<linearGradient id="paint0_linear" x1="163.5" y1="392" x2="388.256" y2="260.336" gradientUnits="userSpaceOnUse">
<stop stop-color="#0072C5"/>
<stop offset="1" stop-color="#80C2FF"/>
</linearGradient>
</defs>
</svg>
